<svg width="29" height="24" viewBox="0 0 29 24" fill="none" xmlns="http://www.w3.org/2000/svg">
<g clip-path="url(#clip0_1_13)">
<path d="M28.2174 22.5867L21.0058 16.3247C22.8791 14.3353 23.8002 11.7968 23.5784 9.23426C23.3567 6.67173 22.0091 4.28123 19.8145 2.55722C17.6199 0.833208 14.7461 -0.0924103 11.7876 -0.0281784C8.82908 0.0360534 6.01217 1.08522 3.91952 2.90231C1.82687 4.7194 0.618596 7.16539 0.544623 9.73434C0.470651 12.3033 1.53664 14.7987 3.52209 16.7043C5.50754 18.6099 8.26056 19.78 11.2117 19.9725C14.1628 20.1651 17.0863 19.3653 19.3774 17.7387L26.589 24.0007L28.2174 22.5867ZM12.0944 18.0007C10.2722 18.0007 8.49089 17.5315 6.97579 16.6525C5.46069 15.7734 4.27981 14.524 3.58249 13.0622C2.88516 11.6004 2.70271 9.99182 3.0582 8.43997C3.4137 6.88813 4.29117 5.46266 5.57965 4.34384C6.86814 3.22502 8.50978 2.4631 10.297 2.15441C12.0841 1.84573 13.9366 2.00416 15.6201 2.60966C17.3036 3.21516 18.7425 4.24054 19.7548 5.55614C20.7672 6.87173 21.3076 8.41845 21.3076 10.0007C21.3048 12.1217 20.3333 14.1551 18.606 15.6549C16.8788 17.1547 14.537 17.9983 12.0944 18.0007Z" fill="black"/>
</g>
<defs>
<clipPath id="clip0_1_13">
<rect width="27.6396" height="24" fill="white" transform="translate(0.578003)"/>
</clipPath>
</defs>
</svg>
